<?xml version="1.0" standalone="no"?>
<!DOCTYPE svg PUBLIC "-//W3C//DTD SVG 20010904//EN"
 "http://www.w3.org/TR/2001/REC-SVG-20010904/DTD/svg10.dtd">
<svg version="1.0" xmlns="http://www.w3.org/2000/svg"
 width="276.000000pt" height="183.000000pt" viewBox="0 0 276.000000 183.000000"
 preserveAspectRatio="xMidYMid meet">

<g transform="translate(0.000000,183.000000) scale(0.100000,-0.100000)"
fill="#000000" stroke="none">
<path d="M0 1628 c1 -152 4 -207 14 -220 15 -20 27 -14 19 10 -4 15 -3 15 10
0 15 -19 37 -24 37 -9 0 5 -6 12 -12 15 -7 2 -4 4 7 4 41 -2 54 2 49 16 -8 21
1 23 126 36 63 7 140 15 170 20 52 7 53 7 15 9 -40 3 -40 3 -10 12 17 5 56 4
95 -1 86 -13 200 -13 200 0 0 6 -11 10 -24 10 -14 0 -28 5 -31 10 -6 9 21 15
55 12 34 -3 240 22 240 30 0 4 18 8 40 8 30 0 40 4 40 16 0 15 29 16 303 13
l302 -4 3 28 c2 15 8 27 14 27 6 0 8 -10 4 -26 -5 -20 -3 -24 11 -22 10 2 25
14 34 27 l17 23 7 -21 c6 -19 14 -22 53 -21 26 0 56 0 67 0 11 0 33 0 49 1 15
0 35 -6 45 -14 14 -13 18 -13 30 0 10 11 23 13 50 8 83 -16 139 -21 165 -14
16 5 83 11 149 15 104 6 120 9 124 25 4 16 7 16 19 4 16 -16 19 -29 4 -20 -18
11 -28 -70 -17 -145 3 -25 4 -37 1 -27 -7 23 -24 22 -17 -1 4 -16 -2 -17 -84
-11 -65 6 -100 4 -133 -7 -25 -8 -81 -25 -125 -39 -44 -13 -101 -32 -127 -42
-39 -15 -52 -16 -68 -5 -27 17 -38 15 -14 -3 21 -16 22 -15 -53 -20 -23 -1
-40 1 -38 5 7 12 -113 79 -144 82 -28 2 -101 -38 -101 -55 0 -5 -4 -6 -9 -3
-5 3 -20 -3 -34 -14 -14 -11 -30 -20 -36 -20 -6 0 -11 -4 -11 -9 0 -12 -22
-19 -79 -26 -23 -3 -47 -8 -52 -11 -5 -3 -22 2 -37 11 -27 16 -30 16 -66 -9
-21 -14 -64 -33 -95 -43 -31 -9 -76 -30 -100 -45 -24 -16 -71 -38 -105 -50
-33 -11 -70 -27 -81 -34 -25 -18 -49 -18 -39 -1 5 7 0 6 -11 -3 -10 -8 -16
-10 -12 -3 11 17 -83 95 -107 89 -13 -3 -36 10 -75 45 -54 48 -85 61 -93 37
-3 -9 -9 -8 -22 5 -17 16 -16 17 6 17 20 1 21 2 5 11 -9 5 -21 8 -26 5 -5 -3
-12 1 -15 10 -4 9 -13 14 -21 10 -8 -3 -15 -1 -15 4 0 6 -6 10 -14 10 -7 0
-20 10 -28 22 -14 20 -16 21 -59 6 -24 -9 -64 -21 -89 -28 -83 -21 -112 -32
-131 -48 -10 -9 -26 -17 -35 -18 -10 -2 -32 -11 -51 -21 l-33 -18 0 -622 0
-623 293 0 c161 0 297 4 302 9 6 5 150 79 320 165 171 86 326 170 344 187 18
16 36 28 39 25 2 -3 -9 -19 -27 -35 -17 -16 -28 -31 -24 -33 5 -3 3 -3 -4 -2
-6 2 -14 -4 -17 -13 -4 -8 -12 -13 -19 -10 -8 3 -20 1 -28 -5 -11 -8 -11 -9 2
-5 9 3 16 -1 16 -8 0 -10 -5 -11 -18 -4 -25 13 -39 11 -33 -5 6 -15 -22 -30
-31 -17 -5 8 -396 -180 -475 -228 l-35 -21 750 0 750 0 -120 65 c-66 35 -114
65 -107 65 7 0 66 -29 132 -65 l119 -65 316 0 315 0 0 699 0 699 -32 6 c-28 6
-30 8 -15 17 9 5 17 17 17 24 0 17 -12 19 -26 5 -16 -16 -54 -21 -55 -7 0 7
-5 3 -10 -8 -8 -19 -9 -19 -6 -1 1 11 6 19 10 17 4 -1 15 5 23 14 9 8 21 15
28 15 13 0 27 44 25 79 0 12 -2 11 -9 -4 -7 -15 -9 -8 -11 30 l-2 50 -7 -45
c-4 -27 -8 -35 -8 -19 -1 15 -5 41 -9 59 -6 32 -5 33 21 26 18 -4 25 -3 21 4
-4 6 4 10 19 10 26 0 26 1 26 80 l0 80 -1380 0 -1380 0 0 -202z m1740 62 c0
-5 -4 -10 -10 -10 -5 0 -10 5 -10 10 0 6 5 10 10 10 6 0 10 -4 10 -10z m797
-72 c-3 -8 -6 -5 -6 6 -1 11 2 17 5 13 3 -3 4 -12 1 -19z m-958 -279 c26 -9
44 -29 26 -29 -10 0 -65 30 -65 35 0 7 3 6 39 -6z m36 -59 c3 -5 1 -10 -4 -10
-6 0 -11 5 -11 10 0 6 2 10 4 10 3 0 8 -4 11 -10z m-219 -923 c28 -54 48 -67
101 -65 l48 1 -50 7 c-27 4 -46 8 -41 8 5 1 3 9 -4 17 -7 8 -9 15 -4 15 5 0
-2 9 -15 19 -13 10 -22 24 -19 31 3 9 13 4 31 -15 20 -22 23 -31 14 -38 -8 -6
-5 -7 7 -3 12 4 33 -3 57 -19 21 -14 45 -25 52 -25 7 0 21 -6 31 -13 16 -12 8
-12 -52 -5 -43 5 -88 4 -114 -1 -27 -7 -44 -7 -46 -1 -6 16 -20 11 -25 -7 -4
-14 -5 -12 -6 5 -1 16 -7 22 -25 22 -33 0 -57 -10 -50 -21 7 -11 -7 -11 -24 0
-20 12 -19 16 3 42 12 13 14 19 5 14 -12 -7 -13 -6 -2 6 11 12 14 12 22 -1 8
-12 11 -11 16 8 8 30 24 28 24 -3 0 -14 -5 -25 -12 -25 -6 0 -9 -3 -5 -6 3 -3
15 -3 27 1 15 5 19 12 15 27 -9 25 3 71 15 63 6 -4 17 -21 26 -38z m284 -122
c0 -1 -12 -2 -26 -2 -17 0 -22 2 -13 7 10 7 39 3 39 -5z m-305 -5 c3 -5 -1
-10 -10 -10 -9 0 -13 5 -10 10 3 6 8 10 10 10 2 0 7 -4 10 -10z m58 3 c-7 -2
-21 -2 -30 0 -10 3 -4 5 12 5 17 0 24 -2 18 -5z m14 -28 c-7 -7 -18 -10 -24
-8 -21 8 -15 18 11 19 20 2 22 -1 13 -11z m304 -6 c48 -24 47 -35 -2 -15 -19
7 -39 12 -45 9 -6 -2 -11 3 -11 12 0 20 10 19 58 -6z m-380 -12 c-13 -13 -26
-3 -16 12 3 6 11 8 17 5 6 -4 6 -10 -1 -17z m302 16 c-7 -2 -19 -2 -25 0 -7 3
-2 5 12 5 14 0 19 -2 13 -5z m-303 -53 c0 -5 -5 -10 -11 -10 -5 0 -7 5 -4 10
3 6 8 10 11 10 2 0 4 -4 4 -10z m480 0 c8 -5 11 -10 5 -10 -5 0 -17 5 -25 10
-8 5 -10 10 -5 10 6 0 17 -5 25 -10z m-480 -65 c0 -8 -4 -15 -10 -15 -5 0 -10
7 -10 15 0 8 5 15 10 15 6 0 10 -7 10 -15z"/>
<path d="M1840 1385 c-7 -8 -8 -15 -2 -15 5 0 15 7 22 15 7 8 8 15 2 15 -5 0
-15 -7 -22 -15z"/>
</g>
</svg>
